# xmcd
#
# Track frame offsets: 
#        150
#        5147
#        34738
#        52094
#        74926
#        89571
#        108463
#        123855
#        145149
#        159940
#        177541
#        189708
#        205833
#        234414
#        255832
#        270088
#        293429
#        308578
#        326679
#
# Disc length: 4654 seconds
#
# Revision: 7
# Processed by: cddbd v1.5.2PL0 Copyright (c) Steve Scherf et al.
# Submitted via: ExactAudioCopy v1.3
#
DISCID=0e122c13
DTITLE=Saxon - Crusader
DYEAR=1984
DGENRE=Heavy Metal
TTITLE0=The Crusader Prelude (Instrumental)
TTITLE1=Crusader
TTITLE2=A Little Bit Of What You Fancy
TTITLE3=Sailing To America
TTITLE4=Set Me Free
TTITLE5=Just Let Me Rock
TTITLE6=Bad Boys (Like To Rock N' Roll)
TTITLE7=Do It All For You
TTITLE8=Rock City
TTITLE9=Run For Your Lives
TTITLE10=Borderline (Kaley Studio demo, 1983.09)
TTITLE11=Helter Skelter (Kaley Studio demo, 1983.09)
TTITLE12=Crusader (Kaley Studio demo, 1983.09)
TTITLE13=Do It All For You (Kaley Studio demo, 1983.09)
TTITLE14=A Little Bit Of What You Fancy (Kaley Studio demo, 1983.09)
TTITLE15=Sailing To America (Kaley Studio demo, 1983.09)
TTITLE16=Set Me Free (Kaley Studio demo, 1983.09)
TTITLE17=Just Let Me Rock (Kaley Studio demo, 1983.09)
TTITLE18=Do It All For You (Intro) - Run For Your Lives (Kaley Studio 
TTITLE18=demo, 1983.09)
EXTD=
EXTT0=
EXTT1=
EXTT2=
EXTT3=
EXTT4=
EXTT5=
EXTT6=
EXTT7=
EXTT8=
EXTT9=
EXTT10=
EXTT11=
EXTT12=
EXTT13=
EXTT14=
EXTT15=
EXTT16=
EXTT17=
EXTT18=
PLAYORDER=
